<?xml version="1.0" encoding="utf-8"?>
<svg version="1.1" id="Layer_1" xmlns="http://www.w3.org/2000/svg" xmlns:xlink="http://www.w3.org/1999/xlink" x="0px" y="0px"
	 viewBox="0 0 42 50" style="enable-background:new 0 0 42 50;" xml:space="preserve">
<style type="text/css">
	.st1{fill:#FFFFFF;}
</style>
<g>
	<path class="st1" d="M21.78,11.34c0.29,0.29,0.44,0.64,0.5,1.04v25.05c-0.06,0.4-0.21,0.74-0.5,1.04s-0.64,0.44-1.05,0.44
		s-0.75-0.15-1.05-0.44l-7.75-7.67h-6.1c-0.4,0-0.75-0.15-1.05-0.44c-0.29-0.29-0.44-0.64-0.44-1.04v-8.84
		c0-0.4,0.15-0.74,0.44-1.04C5.09,19.15,5.44,19,5.85,19h6.1l7.75-7.67c0.29-0.29,0.64-0.44,1.05-0.44S21.49,11.05,21.78,11.34z
		 M30.41,21.63c0.66,1.01,0.99,2.1,0.99,3.27s-0.33,2.25-0.99,3.26c-0.66,1.01-1.53,1.72-2.62,2.15c-0.16,0.08-0.35,0.12-0.58,0.12
		c-0.4,0-0.75-0.14-1.05-0.43s-0.44-0.63-0.44-1.05c0-0.32,0.09-0.59,0.28-0.82c0.19-0.22,0.41-0.41,0.67-0.58
		c0.26-0.16,0.53-0.34,0.79-0.53c0.26-0.19,0.49-0.47,0.67-0.83c0.19-0.36,0.28-0.79,0.28-1.3c0-0.51-0.09-0.94-0.28-1.3
		c-0.19-0.36-0.41-0.64-0.67-0.83c-0.26-0.19-0.53-0.37-0.79-0.53s-0.49-0.35-0.67-0.58c-0.19-0.22-0.28-0.5-0.28-0.82
		c0-0.41,0.15-0.76,0.44-1.05c0.29-0.28,0.64-0.43,1.05-0.43c0.23,0,0.43,0.04,0.58,0.12C28.88,19.9,29.75,20.62,30.41,21.63z
		 M35.38,18.39c1.32,1.99,1.98,4.16,1.98,6.5s-0.66,4.52-1.98,6.5s-3.06,3.43-5.24,4.34c-0.2,0.08-0.4,0.12-0.58,0.12
		c-0.42,0-0.78-0.15-1.07-0.44c-0.29-0.29-0.44-0.64-0.44-1.04c0-0.6,0.3-1.05,0.91-1.36c0.87-0.45,1.46-0.78,1.77-1.01
		c1.15-0.83,2.04-1.87,2.69-3.12c0.64-1.25,0.97-2.58,0.97-4s-0.32-2.74-0.97-4c-0.64-1.25-1.54-2.29-2.69-3.12
		c-0.31-0.23-0.9-0.57-1.77-1.01c-0.6-0.31-0.91-0.76-0.91-1.36c0-0.4,0.15-0.74,0.44-1.04s0.64-0.44,1.05-0.44
		c0.2,0,0.4,0.04,0.6,0.12C32.31,14.96,34.06,16.41,35.38,18.39z"/>
</g>
</svg>
